<svg width="116" height="32" viewBox="0 0 116 32" fill="none" xmlns="http://www.w3.org/2000/svg">
<g clip-path="url(#clip0_986_8729)">
<path d="M16.5 7.08016V26.0002C12.0866 26.0002 8.49998 22.4935 8.49998 18.1735C8.49998 16.0935 9.32665 14.1335 10.8333 12.6535L16.5 7.08016ZM16.5 3.3335L8.96665 10.7468C7.03331 12.6535 5.83331 15.2802 5.83331 18.1735C5.83331 23.9735 10.6066 28.6668 16.5 28.6668C22.3933 28.6668 27.1666 23.9735 27.1666 18.1735C27.1666 15.2802 25.9666 12.6535 24.0333 10.7468L16.5 3.3335Z" fill="black"/>
</g>
<path d="M46.02 23.2C44.8867 23.2 43.9133 23.0067 43.1 22.62C42.3 22.2333 41.5733 21.6533 40.92 20.88L42.72 19.08C43.1333 19.6267 43.6133 20.0533 44.16 20.36C44.7067 20.6533 45.3733 20.8 46.16 20.8C46.8667 20.8 47.4267 20.66 47.84 20.38C48.2667 20.1 48.48 19.7133 48.48 19.22C48.48 18.7933 48.36 18.4467 48.12 18.18C47.88 17.9133 47.56 17.6867 47.16 17.5C46.7733 17.3133 46.34 17.1467 45.86 17C45.3933 16.84 44.92 16.66 44.44 16.46C43.9733 16.26 43.54 16.0133 43.14 15.72C42.7533 15.4133 42.44 15.0267 42.2 14.56C41.96 14.08 41.84 13.48 41.84 12.76C41.84 11.9067 42.0467 11.18 42.46 10.58C42.8733 9.98 43.44 9.52 44.16 9.2C44.88 8.88 45.6933 8.72 46.6 8.72C47.56 8.72 48.4267 8.9 49.2 9.26C49.9733 9.62 50.6067 10.0867 51.1 10.66L49.3 12.46C48.8867 12.0067 48.46 11.6733 48.02 11.46C47.5933 11.2467 47.1067 11.14 46.56 11.14C45.9333 11.14 45.44 11.26 45.08 11.5C44.72 11.74 44.54 12.0867 44.54 12.54C44.54 12.9267 44.66 13.24 44.9 13.48C45.14 13.72 45.4533 13.9267 45.84 14.1C46.24 14.2733 46.6733 14.44 47.14 14.6C47.62 14.76 48.0933 14.94 48.56 15.14C49.04 15.34 49.4733 15.6 49.86 15.92C50.26 16.24 50.58 16.6533 50.82 17.16C51.06 17.6533 51.18 18.2667 51.18 19C51.18 20.3067 50.72 21.3333 49.8 22.08C48.88 22.8267 47.62 23.2 46.02 23.2ZM61.8267 23L55.7267 15.66L61.6667 8.94H65.0667L58.4467 16.24L58.4667 14.98L65.2867 23H61.8267ZM53.3267 23V8.94H56.0467V23H53.3267ZM66.7447 23V8.94H69.4647V23H66.7447ZM72.3502 23V8.94H74.2502L75.0702 11.66V23H72.3502ZM82.0702 23L73.7302 12.2L74.2502 8.94L82.5902 19.74L82.0702 23ZM82.0702 23L81.2902 20.36V8.94H84.0302V23H82.0702ZM93.4014 23.2C92.3747 23.2 91.4214 23.02 90.5414 22.66C89.6614 22.2867 88.8881 21.7733 88.2214 21.12C87.5681 20.4533 87.0614 19.68 86.7014 18.8C86.3547 17.92 86.1814 16.9733 86.1814 15.96C86.1814 14.9467 86.3547 14 86.7014 13.12C87.0614 12.24 87.5681 11.4733 88.2214 10.82C88.8881 10.1667 89.6547 9.65333 90.5214 9.28C91.4014 8.90667 92.3614 8.72 93.4014 8.72C94.5214 8.72 95.5081 8.90667 96.3614 9.28C97.2147 9.64 97.9681 10.14 98.6214 10.78L96.7814 12.62C96.3947 12.1933 95.9214 11.86 95.3614 11.62C94.8014 11.38 94.1481 11.26 93.4014 11.26C92.7481 11.26 92.1481 11.3733 91.6014 11.6C91.0681 11.8133 90.6014 12.1333 90.2014 12.56C89.8014 12.9733 89.4947 13.4733 89.2814 14.06C89.0681 14.6333 88.9614 15.2667 88.9614 15.96C88.9614 16.6667 89.0681 17.3067 89.2814 17.88C89.4947 18.4533 89.8014 18.9533 90.2014 19.38C90.6014 19.7933 91.0681 20.1133 91.6014 20.34C92.1481 20.5667 92.7481 20.68 93.4014 20.68C94.1881 20.68 94.8614 20.56 95.4214 20.32C95.9947 20.08 96.4747 19.74 96.8614 19.3L98.7014 21.14C98.0481 21.7933 97.2881 22.3 96.4214 22.66C95.5547 23.02 94.5481 23.2 93.4014 23.2ZM106.606 23.22C105.579 23.22 104.619 23.0333 103.726 22.66C102.846 22.2867 102.073 21.7733 101.406 21.12C100.753 20.4533 100.239 19.68 99.8659 18.8C99.4926 17.9067 99.3059 16.9533 99.3059 15.94C99.3059 14.9267 99.4859 13.9867 99.8459 13.12C100.219 12.24 100.733 11.4733 101.386 10.82C102.053 10.1533 102.826 9.64 103.706 9.28C104.586 8.90667 105.539 8.72 106.566 8.72C107.606 8.72 108.566 8.90667 109.446 9.28C110.326 9.64 111.093 10.1533 111.746 10.82C112.413 11.4733 112.933 12.24 113.306 13.12C113.679 14 113.866 14.9467 113.866 15.96C113.866 16.9733 113.679 17.92 113.306 18.8C112.933 19.68 112.413 20.4533 111.746 21.12C111.093 21.7733 110.326 22.2867 109.446 22.66C108.579 23.0333 107.633 23.22 106.606 23.22ZM106.566 20.68C107.473 20.68 108.259 20.48 108.926 20.08C109.593 19.68 110.113 19.1267 110.486 18.42C110.873 17.7133 111.066 16.8867 111.066 15.94C111.066 15.2467 110.959 14.6133 110.746 14.04C110.533 13.4667 110.226 12.9733 109.826 12.56C109.426 12.1333 108.953 11.8067 108.406 11.58C107.859 11.3533 107.246 11.24 106.566 11.24C105.686 11.24 104.906 11.44 104.226 11.84C103.559 12.2267 103.033 12.7733 102.646 13.48C102.273 14.1867 102.086 15.0067 102.086 15.94C102.086 16.6467 102.193 17.2933 102.406 17.88C102.633 18.4667 102.939 18.9667 103.326 19.38C103.726 19.7933 104.199 20.1133 104.746 20.34C105.306 20.5667 105.913 20.68 106.566 20.68Z" fill="black"/>
<defs>
<clipPath id="clip0_986_8729">
<rect width="32" height="32" fill="white" transform="translate(0.5)"/>
</clipPath>
</defs>
</svg>
