<svg width="118" height="120" viewBox="0 0 118 120" fill="none" xmlns="http://www.w3.org/2000/svg">
<path d="M33.8171 111.558C30.9387 114.319 26.2349 111.628 27.1563 107.748L31.5221 89.3607C32.1715 86.6257 29.8715 84.0916 27.0866 84.4738L8.36577 87.0425C4.41398 87.5847 2.19002 82.6424 5.21674 80.0444L19.556 67.7362C21.6889 65.9054 21.3179 62.5036 18.8404 61.1756L2.18209 52.2463C-1.33333 50.362 -0.227395 45.0567 3.74813 44.734L22.5862 43.2045C25.3881 42.977 27.0874 40.0065 25.8634 37.4759L17.6343 20.4629C15.8974 16.872 19.9107 13.2296 23.3168 15.3055L39.4535 25.1399C41.854 26.6028 44.975 25.1984 45.4721 22.4315L48.8133 3.8337C49.5186 -0.0922758 54.9063 -0.680325 56.442 3.00105L63.7174 20.4422C64.7996 23.0366 68.1499 23.7348 70.1783 21.7886L83.8144 8.70558C86.6927 5.94406 91.397 8.63512 90.4755 12.516L86.1102 30.9011C85.4608 33.6359 87.7605 36.1699 90.5453 35.7881L109.273 33.2204C113.225 32.6786 115.449 37.6209 112.422 40.2187L98.0788 52.5287C95.9455 54.3596 96.3168 57.762 98.7948 59.0898L115.45 68.0137C118.966 69.8976 117.86 75.2036 113.885 75.5264L95.0507 77.0555C92.2488 77.283 90.5495 80.2535 91.7735 82.7841L100.003 99.7972C101.739 103.388 97.7262 107.03 94.32 104.955L78.1831 95.12C75.7826 93.657 72.6617 95.0613 72.1645 97.8281L68.8208 116.433C68.1152 120.359 62.7278 120.947 61.1922 117.266L53.9159 99.8228C52.8338 97.2285 49.4838 96.5303 47.4553 98.4761L33.8171 111.558Z" fill="#DEE1FD"/>
</svg>
