<svg width="159" height="117" viewBox="0 0 159 117" fill="none" xmlns="http://www.w3.org/2000/svg">
<path d="M134.529 37.9108C141.678 50.3998 146.713 63.9846 149.431 78.1158C149.967 81.0435 150.123 84.6618 147.668 86.3758C146.453 87.0508 145.085 87.4013 143.695 87.3934L117.433 89.4695C112.396 89.8852 106.398 89.8426 103.491 85.7109C101.813 83.3237 101.719 80.2276 101.49 77.3253C101.126 70.8334 99.4173 64.4878 96.473 58.6905C93.4956 52.8701 88.6233 48.2383 82.6597 45.5591C71.5629 40.886 56.2561 43.4577 47.5993 51.881C37.7092 61.4609 34.8769 80.1146 17.5839 79.5131C14.2168 79.3954 7.89306 76.144 6.1929 73.2414C2.863 67.5521 5.38049 60.3252 8.27978 54.4058C14.8175 41.0757 23.314 28.3752 35.0934 19.3189C52.395 6.01344 77.0308 2.6718 97.9129 8.17035C114.699 12.5869 125.262 23.8159 134.348 37.9258" fill="#DEE1FD"/>
<circle cx="119.249" cy="94.6036" r="6.35996" fill="#EBF490"/>
<circle cx="138.329" cy="110.504" r="6.35996" fill="#EBF490"/>
<circle cx="151.844" cy="87.4493" r="6.35996" fill="#EBF490"/>
<circle cx="131.969" cy="77.9093" r="6.35996" fill="#EBF490"/>
<circle cx="104.144" cy="73.1393" r="6.35996" fill="#EBF490"/>
<circle cx="84.2693" cy="96.9889" r="6.35996" fill="#EBF490"/>
</svg>
