<svg width="128" height="129" viewBox="0 0 128 129" fill="none" xmlns="http://www.w3.org/2000/svg">
<path d="M64 129C99.3462 129 128 100.346 128 65C128 29.6538 99.3462 1 64 1C28.6538 1 0 29.6538 0 65C0 100.346 28.6538 129 64 129Z" fill="#EBF490"/>
<path d="M64 105.31C53.3124 105.299 43.0655 101.049 35.5082 93.4918C27.9509 85.9345 23.7007 75.6876 23.6901 64.9999C23.7007 54.3123 27.9509 44.0655 35.5082 36.5082C43.0655 28.9509 53.3124 24.7005 64 24.6899C74.6876 24.7005 84.9345 28.9509 92.4918 36.5082C100.049 44.0655 104.299 54.3123 104.31 64.9999C104.299 75.6876 100.049 85.9345 92.4918 93.4918C84.9345 101.049 74.6876 105.299 64 105.31ZM64 25.93C53.6421 25.9432 43.7121 30.0638 36.3879 37.3879C29.0638 44.7121 24.9433 54.642 24.9301 64.9999C24.9433 75.357 29.0641 85.2859 36.3885 92.6085C43.713 99.9311 53.643 104.049 64 104.06C74.3561 104.049 84.285 99.9307 91.6079 92.6078C98.9308 85.285 103.049 75.356 103.06 64.9999C103.049 54.6429 98.9311 44.713 91.6085 37.3885C84.2859 30.0641 74.357 25.9432 64 25.93V25.93Z" fill="black"/>
<path d="M64 51.7199V79.8799C60.8765 79.9119 57.8679 78.7031 55.6349 76.5188C53.4019 74.3345 52.1269 71.3534 52.09 68.2299C52.0895 66.6989 52.3965 65.1833 52.9926 63.7731C53.5886 62.3628 54.4617 61.0865 55.5601 60.0199L64 51.7199ZM64 46.1499L52.79 57.1499C51.316 58.5887 50.1438 60.3071 49.3419 62.2045C48.54 64.1018 48.1246 66.14 48.12 68.1999C48.1357 70.2686 48.559 72.314 49.3658 74.2189C50.1726 76.1239 51.347 77.8512 52.8219 79.3019C54.2968 80.7526 56.0431 81.8983 57.9612 82.6736C59.8792 83.4488 61.9313 83.8383 64 83.8199C66.0666 83.8397 68.1168 83.452 70.0334 82.6791C71.9501 81.9062 73.6957 80.7632 75.1704 79.3154C76.6452 77.8676 77.8202 76.1434 78.6283 74.2413C79.4364 72.3392 79.8617 70.2965 79.88 68.2299C79.8773 66.1707 79.4637 64.1327 78.6636 62.2353C77.8634 60.3379 76.6926 58.6193 75.22 57.1799L64 46.1499Z" fill="black"/>
<path d="M12.05 50.1502L11.05 49.8502L11.78 47.5602L12.78 47.8702L12.05 50.1502ZM18.05 50.6102L11.46 48.5302L11.8 47.4702L18.38 49.5402L18.05 50.6102Z" fill="black"/>
<path d="M20.0101 45.75C19.7994 46.2196 19.4506 46.6138 19.0101 46.88C18.5411 47.1617 18.0069 47.3167 17.46 47.33C16.8105 47.3361 16.168 47.196 15.58 46.92C14.9796 46.678 14.4425 46.3017 14.0101 45.82C13.6482 45.4151 13.3998 44.9218 13.2901 44.39C13.199 43.8931 13.2617 43.3803 13.47 42.92C13.6778 42.446 14.0271 42.0478 14.47 41.78C14.9311 41.4983 15.4597 41.3462 16 41.34C16.6495 41.334 17.2921 41.4741 17.88 41.75C18.4815 41.9955 19.021 42.3712 19.46 42.85C19.8251 43.2527 20.0741 43.7469 20.1801 44.28C20.2737 44.7759 20.2144 45.2886 20.0101 45.75V45.75ZM19.0101 45.34C19.1409 45.0519 19.1759 44.7295 19.11 44.42C19.0269 44.0849 18.8458 43.782 18.59 43.5501C18.2398 43.2304 17.8373 42.9734 17.4001 42.79C16.9747 42.5918 16.5177 42.4699 16.0501 42.4301C15.7026 42.4067 15.3557 42.483 15.0501 42.65C14.7811 42.8141 14.571 43.0591 14.45 43.35C14.3186 43.6344 14.2835 43.9539 14.35 44.26C14.4251 44.5961 14.6034 44.9003 14.86 45.13C15.2084 45.447 15.6117 45.6978 16.0501 45.87C16.4735 46.0754 16.9311 46.2009 17.4001 46.2401C17.7459 46.2741 18.094 46.2045 18.4001 46.04C18.6798 45.8804 18.9007 45.6349 19.0301 45.34H19.0101Z" fill="black"/>
<path d="M23.01 40.0098C22.749 40.4508 22.3577 40.8002 21.89 41.0098C21.3917 41.233 20.842 41.3159 20.3 41.2497C19.6542 41.1709 19.035 40.9451 18.49 40.5898C17.9271 40.2695 17.4448 39.8249 17.0799 39.2898C16.7769 38.8409 16.5976 38.3201 16.56 37.7798C16.5351 37.2734 16.6641 36.7714 16.93 36.3398C17.1916 35.8991 17.5827 35.5499 18.05 35.3398C18.5453 35.1184 19.0913 35.0355 19.63 35.0998C20.2751 35.1817 20.8936 35.4072 21.44 35.7598C22.0014 36.0865 22.4829 36.5339 22.85 37.0698C23.1565 37.5169 23.3363 38.0387 23.37 38.5798C23.399 39.082 23.2734 39.5811 23.01 40.0098V40.0098ZM22.0899 39.4698C22.2558 39.2002 22.3328 38.8854 22.31 38.5698C22.2732 38.2236 22.1339 37.8963 21.91 37.6298C21.609 37.2693 21.2467 36.9646 20.8399 36.7298C20.445 36.4754 20.0084 36.2926 19.55 36.1897C19.217 36.1157 18.8695 36.14 18.55 36.2598C18.2584 36.3894 18.0139 36.606 17.85 36.8798C17.6809 37.1442 17.6037 37.457 17.63 37.7698C17.6629 38.1121 17.7989 38.4363 18.02 38.6998C18.3211 39.0603 18.6832 39.3649 19.0899 39.5998C19.4891 39.8553 19.9287 40.0413 20.39 40.1498C20.7232 40.2227 21.0703 40.1984 21.39 40.0798C21.6809 39.9538 21.9254 39.7407 22.0899 39.4698V39.4698Z" fill="black"/>
<path d="M22.49 33.1201C22.3352 33.3135 22.1315 33.462 21.9001 33.5502C21.6739 33.6361 21.4297 33.6635 21.1901 33.6301C20.9426 33.59 20.7108 33.4828 20.5201 33.3201C20.3237 33.1682 20.1745 32.9636 20.09 32.7302C20.0119 32.5056 19.988 32.2657 20.0201 32.0302C20.0601 31.7827 20.1673 31.5509 20.33 31.3602C20.4814 31.1609 20.6859 31.0084 20.9201 30.9202C21.1463 30.8343 21.3904 30.8067 21.63 30.8401C21.8748 30.8831 22.1051 30.9862 22.3001 31.1401C22.4918 31.3006 22.6397 31.5071 22.73 31.7402C22.813 31.9636 22.8372 32.2046 22.8001 32.4401C22.7598 32.6905 22.6526 32.9255 22.49 33.1201V33.1201ZM21.84 32.5901C21.8883 32.5362 21.9249 32.4728 21.9473 32.4039C21.9697 32.335 21.9774 32.2622 21.97 32.1901C21.9479 32.0428 21.8689 31.91 21.75 31.8201C21.6944 31.7707 21.6295 31.7329 21.5591 31.7089C21.4887 31.6848 21.4142 31.6751 21.34 31.6802C21.2688 31.6885 21.2001 31.7114 21.1381 31.7475C21.0762 31.7836 21.0223 31.8322 20.98 31.8901C20.9335 31.9432 20.898 32.005 20.8757 32.072C20.8533 32.139 20.8446 32.2098 20.85 32.2802C20.8605 32.3533 20.8853 32.4236 20.923 32.4871C20.9608 32.5506 21.0107 32.606 21.07 32.6501C21.184 32.7471 21.3305 32.7972 21.48 32.7902C21.5575 32.7894 21.6339 32.771 21.7032 32.7363C21.7725 32.7017 21.833 32.6517 21.88 32.5901H21.84ZM24.9401 36.7902L22.38 29.0001L23.0601 28.1602L25.61 35.9601L24.9401 36.7902ZM27.6601 33.6002C27.5052 33.7935 27.3015 33.9419 27.07 34.0302C26.8438 34.116 26.5997 34.1436 26.36 34.1102C26.1125 34.0701 25.8809 33.9629 25.6901 33.8002C25.4908 33.6511 25.3409 33.4455 25.2601 33.2101C25.1771 32.9867 25.153 32.7456 25.1901 32.5101C25.231 32.2648 25.3342 32.0341 25.49 31.8401C25.6474 31.6428 25.8545 31.4909 26.09 31.4001C26.3162 31.3143 26.5605 31.2867 26.8001 31.3201C27.0423 31.3613 27.2697 31.4647 27.46 31.6201C27.6574 31.7775 27.8093 31.9846 27.9001 32.2202C27.9782 32.4447 28.0021 32.6846 27.97 32.9202C27.9297 33.1706 27.8227 33.4055 27.6601 33.6002V33.6002ZM27.0101 33.0701C27.0592 33.0147 27.0961 32.9495 27.1185 32.8789C27.1408 32.8083 27.1482 32.7338 27.1401 32.6602C27.1296 32.587 27.1048 32.5167 27.0671 32.4532C27.0293 32.3897 26.9794 32.3343 26.9201 32.2902C26.8092 32.1955 26.6654 32.1488 26.5201 32.1602C26.4456 32.167 26.3734 32.1891 26.308 32.2253C26.2426 32.2614 26.1854 32.3107 26.1401 32.3701C26.0918 32.4238 26.0561 32.4876 26.0353 32.5567C26.0146 32.6259 26.0094 32.6987 26.0201 32.7701C26.0307 32.8418 26.0556 32.9107 26.0934 32.9725C26.1312 33.0344 26.1811 33.088 26.24 33.1301C26.3499 33.2274 26.4935 33.2777 26.6401 33.2701C26.7124 33.265 26.7828 33.2446 26.8466 33.2101C26.9104 33.1756 26.9661 33.1279 27.0101 33.0701V33.0701Z" fill="black"/>
<path d="M30.88 29.9902L26.4301 24.7101L27.03 24.2001L28.13 24.9702L31.74 29.2601L30.88 29.9902ZM34.53 26.9102L27.88 25.4001L27.01 24.1602L33.65 25.6201L34.53 26.9102ZM34.53 26.9102L33.53 26.2001L29.86 21.8502L30.73 21.1201L35.1801 26.4001L34.53 26.9102Z" fill="black"/>
<path d="M35.95 25.7898L34.72 18.4198L35.39 18.0098L41.39 22.3898L40.39 23.0298L35.5601 19.4398L35.92 19.2198L36.92 25.1498L35.95 25.7898ZM36.4301 23.9198L35.91 23.0798L39.02 21.1498L39.55 21.9898L36.4301 23.9198Z" fill="black"/>
<path d="M38.62 17.2702L38.1801 16.3302L43.28 13.9502L43.72 14.8902L38.62 17.2702ZM43.14 21.6402L40.3 15.5602L41.3 15.0802L44.14 21.1602L43.14 21.6402Z" fill="black"/>
<path d="M49.66 19.17C49.1959 19.3252 48.6985 19.3528 48.22 19.2499C47.7605 19.1552 47.3354 18.9375 46.99 18.6199C46.6322 18.2844 46.37 17.86 46.23 17.39L44.95 13.3099L46.04 12.97L47.3101 17.05C47.3975 17.3407 47.5555 17.6052 47.77 17.8199C47.9755 18.0069 48.2277 18.1347 48.5 18.1899C48.7757 18.259 49.0642 18.259 49.34 18.1899C49.614 18.1082 49.8623 17.9565 50.0601 17.7499C50.2435 17.5512 50.3681 17.3054 50.42 17.04C50.4791 16.7432 50.4584 16.4361 50.36 16.15L49.09 12.0599L50.17 11.73L51.45 15.8199C51.6044 16.2808 51.6321 16.7747 51.53 17.2499C51.4254 17.7049 51.2049 18.1252 50.89 18.47C50.5481 18.8066 50.1241 19.048 49.66 19.17Z" fill="black"/>
<path d="M53.64 17.9601L52.5 11.1501L53.62 10.9601L54.76 17.7701L53.64 17.9601ZM53.9301 14.9601L53.77 14.0301L55.49 13.7401C55.6369 13.7272 55.7798 13.6852 55.9103 13.6166C56.0408 13.5479 56.1562 13.4539 56.25 13.3401C56.33 13.2267 56.3855 13.0979 56.4131 12.9619C56.4406 12.8259 56.4396 12.6857 56.41 12.5501C56.3917 12.4173 56.3468 12.2895 56.2781 12.1744C56.2094 12.0593 56.1182 11.9592 56.01 11.8801C55.8893 11.7915 55.7503 11.7311 55.6031 11.7034C55.456 11.6757 55.3047 11.6814 55.16 11.7201L53.4301 12.0101L53.27 11.0101L55.05 10.7101C55.4398 10.6359 55.8418 10.66 56.22 10.7801C56.5588 10.8825 56.8608 11.0804 57.09 11.3501C57.334 11.6315 57.4874 11.9801 57.53 12.3501C57.6006 12.7122 57.5659 13.0871 57.4301 13.4301C57.304 13.7533 57.0847 14.0318 56.8 14.2301C56.4772 14.462 56.1033 14.6129 55.71 14.6701L53.9301 14.9601ZM57.38 17.3501L54.5 14.7901L55.5 14.2401L58.8101 17.1101L57.38 17.3501Z" fill="black"/>
<path d="M58.95 17.0498L61.53 10.0498H62.3199L65.4 16.8398L64.17 16.8898L61.76 11.3798H62.17L60.17 17.0598L58.95 17.0498ZM60.3 15.6698V14.6698L63.96 14.5398V15.5398L60.3 15.6698Z" fill="black"/>
<path d="M66.36 16.92L66.97 10.04L68.1 10.14L67.49 17.02L66.36 16.92ZM67.13 16.98L67.22 15.98L70.8199 16.3L70.73 17.3L67.13 16.98Z" fill="black"/>
<path d="M74.03 17.89L75.77 11.21L76.87 11.4999L75.12 18.18L74.03 17.89ZM75.4401 15.5699L75.6901 14.5699L77.36 15.0099C77.5698 15.0646 77.7902 15.0646 78 15.0099C78.1948 14.9635 78.374 14.867 78.52 14.73C78.6662 14.572 78.7694 14.3792 78.8199 14.17C78.8746 13.9601 78.8746 13.7398 78.8199 13.53C78.7621 13.3367 78.6513 13.1635 78.5 13.03C78.3349 12.8906 78.1399 12.7914 77.9301 12.74L76.26 12.3L76.51 11.3L78.24 11.7499C78.6334 11.8426 78.9977 12.0317 79.3 12.3C79.5822 12.5505 79.7927 12.8714 79.91 13.23C80.0201 13.6156 80.0201 14.0243 79.91 14.41C79.8161 14.7918 79.6148 15.1388 79.33 15.41C79.0511 15.6725 78.705 15.8525 78.33 15.93C77.9389 16.0242 77.5311 16.0242 77.14 15.93L75.4401 15.5699Z" fill="black"/>
<path d="M79.76 19.4799L82.34 13.0698L83.34 13.4998L80.77 19.8998L79.76 19.4799ZM81.58 17.0499L81.9301 16.1799L83.55 16.8298C83.8191 16.9566 84.1259 16.978 84.41 16.8898C84.5377 16.8351 84.6524 16.7544 84.7471 16.6528C84.8418 16.5512 84.9143 16.431 84.96 16.2999C85.0136 16.1751 85.0414 16.0407 85.0414 15.9048C85.0414 15.769 85.0136 15.6346 84.96 15.5098C84.9 15.3736 84.812 15.2516 84.7018 15.1517C84.5915 15.0517 84.4614 14.9762 84.3199 14.9299L82.7 14.2798L83.0601 13.3599L84.74 14.0399C85.126 14.1722 85.4708 14.4031 85.74 14.7098C85.9704 14.9779 86.1258 15.3022 86.1901 15.6498C86.2329 15.9888 86.1881 16.3331 86.0601 16.6498C85.9279 16.9916 85.707 17.2919 85.42 17.5198C85.1282 17.732 84.7805 17.8537 84.42 17.8698C84.0239 17.8969 83.6268 17.832 83.26 17.6799L81.58 17.0499ZM83.28 20.8898L82.15 17.2098H83.28L84.6 21.3898L83.28 20.8898Z" fill="black"/>
<path d="M87.99 23.3999C87.5735 23.1704 87.2118 22.8531 86.9301 22.4699C86.6606 22.1027 86.4605 21.6892 86.34 21.2499C86.2282 20.8056 86.2011 20.3443 86.2601 19.8899C86.3223 19.417 86.4787 18.9614 86.72 18.55C86.9517 18.138 87.2648 17.7773 87.6401 17.49C88.0044 17.2134 88.4186 17.0097 88.86 16.8899C89.2963 16.7716 89.751 16.7377 90.2 16.7899C90.6681 16.8532 91.1197 17.006 91.5301 17.24C91.9422 17.4757 92.3026 17.792 92.59 18.1699C92.8623 18.5341 93.0595 18.9488 93.1701 19.3899C93.2905 19.8327 93.3211 20.2951 93.2601 20.7499C93.1978 21.2197 93.0414 21.6721 92.8001 22.0799C92.5618 22.4931 92.2459 22.8564 91.87 23.1499C91.5081 23.4243 91.0976 23.6278 90.6601 23.7499C90.2205 23.8683 89.7624 23.9023 89.3101 23.8499C88.8427 23.7975 88.3922 23.644 87.99 23.3999V23.3999ZM88.5201 22.3999C88.8867 22.6268 89.3089 22.7479 89.74 22.7499C90.1486 22.7433 90.5471 22.6221 90.8901 22.3999C91.2727 22.1485 91.5858 21.8045 91.8001 21.3999C91.9701 21.1101 92.0853 20.7915 92.1401 20.4599C92.2004 20.1562 92.2004 19.8436 92.1401 19.5399C92.0702 19.2419 91.9372 18.9622 91.7501 18.7199C91.5471 18.4672 91.2998 18.2537 91.0201 18.0899C90.6537 17.872 90.2363 17.7547 89.8101 17.7499C89.403 17.7566 89.0054 17.8742 88.6601 18.0899C88.2726 18.3357 87.9583 18.6811 87.7501 19.0899C87.575 19.3999 87.4565 19.7385 87.4001 20.0899C87.3397 20.3936 87.3397 20.7062 87.4001 21.0099C87.4721 21.3042 87.605 21.5801 87.7901 21.8199C87.9864 22.0815 88.235 22.2995 88.5201 22.4599V22.3999Z" fill="black"/>
<path d="M91.97 25.7601L96.3199 20.3901L97.2 21.1102L92.86 26.4702L91.97 25.7601ZM92.58 26.2501L93.23 25.4401L94.64 26.5901C94.9759 26.8697 95.3794 27.0559 95.8101 27.1301C96.2077 27.2023 96.6176 27.1572 96.99 27.0001C97.3827 26.8175 97.7256 26.5431 97.99 26.2001C98.2663 25.8648 98.4553 25.4663 98.54 25.0402C98.6024 24.6357 98.5576 24.2219 98.41 23.8401C98.248 23.4436 97.982 23.0981 97.64 22.8401L96.23 21.7001L96.88 20.8901L98.3199 22.0502C98.69 22.3482 98.999 22.7149 99.23 23.1301C99.4513 23.5221 99.594 23.9535 99.65 24.4001C99.699 24.8431 99.6616 25.2914 99.54 25.7202C99.4046 26.1702 99.1801 26.5885 98.88 26.9501C98.5931 27.318 98.2319 27.6212 97.8199 27.8401C97.4287 28.0578 96.9961 28.1907 96.55 28.2302C96.1058 28.2763 95.6567 28.2321 95.23 28.1002C94.778 27.9572 94.3573 27.7299 93.99 27.4302L92.58 26.2501Z" fill="black"/>
<path d="M99.2901 32.4702C98.9562 32.1122 98.7187 31.6751 98.6 31.2002C98.48 30.748 98.48 30.2724 98.6 29.8202C98.7473 29.3492 99.0205 28.9274 99.39 28.6002L102.53 25.7002L103.3 26.5302L100.16 29.4302C99.9315 29.6329 99.7592 29.8913 99.6601 30.1802C99.5901 30.4457 99.5901 30.7248 99.6601 30.9902C99.7342 31.2667 99.8749 31.5208 100.07 31.7302C100.261 31.9449 100.506 32.1038 100.78 32.1902C101.041 32.2704 101.319 32.2704 101.58 32.1902C101.868 32.1125 102.133 31.9648 102.35 31.7602L105.5 28.8502L106.27 29.6902L103.11 32.6002C102.759 32.9361 102.324 33.1711 101.85 33.2802C101.396 33.3803 100.924 33.3596 100.48 33.2202C100.024 33.0793 99.6138 32.8206 99.2901 32.4702V32.4702Z" fill="black"/>
<path d="M103.81 38.1699C103.538 37.7822 103.347 37.3433 103.25 36.8798C103.16 36.4343 103.16 35.9754 103.25 35.5299C103.339 35.0859 103.515 34.6642 103.77 34.2899C104.037 33.8963 104.376 33.557 104.77 33.2899C105.161 33.0199 105.598 32.8234 106.06 32.7099C106.502 32.6202 106.958 32.6202 107.4 32.7099C107.847 32.7886 108.274 32.9515 108.66 33.1898C109.056 33.4546 109.395 33.7943 109.66 34.1898C109.948 34.5943 110.148 35.054 110.25 35.5399C110.33 35.9762 110.33 36.4235 110.25 36.8599L109.18 36.6699C109.245 36.37 109.245 36.0597 109.18 35.7598C109.103 35.4172 108.956 35.0939 108.75 34.8098C108.57 34.5434 108.339 34.3156 108.07 34.1398C107.818 33.978 107.535 33.8691 107.24 33.8198C106.932 33.7802 106.62 33.8006 106.32 33.8798C105.992 33.9649 105.684 34.1107 105.41 34.3098C105.127 34.4981 104.88 34.7351 104.68 35.0098C104.5 35.2614 104.374 35.5474 104.31 35.8499C104.25 36.1435 104.25 36.4463 104.31 36.7399C104.376 37.0544 104.509 37.3511 104.7 37.6099C104.895 37.921 105.154 38.1869 105.46 38.3898C105.723 38.5499 106.015 38.6554 106.32 38.6998L106.12 39.7698C105.675 39.6902 105.25 39.5237 104.87 39.2799C104.44 38.9916 104.078 38.6127 103.81 38.1699Z" fill="black"/>
<path d="M106.58 42.6002L112.58 39.5402L113.1 40.5402L107.1 43.6002L106.58 42.6002ZM110.78 37.9202L111.7 37.4502L114.27 42.4502L113.35 42.9202L110.78 37.9202Z" fill="black"/>
<path d="M108.94 48.1002C108.759 47.657 108.687 47.177 108.73 46.7002C108.787 46.2479 108.944 45.814 109.19 45.4303L110.19 45.8802C110.001 46.1378 109.875 46.4355 109.82 46.7502C109.776 47.0901 109.824 47.4355 109.96 47.7502C110.055 48.0572 110.244 48.3266 110.5 48.5202C110.603 48.5976 110.725 48.6466 110.853 48.6624C110.981 48.6782 111.111 48.6602 111.23 48.6102C111.421 48.5484 111.584 48.4208 111.69 48.2502C111.787 48.0745 111.844 47.8802 111.86 47.6803C111.876 47.4505 111.876 47.22 111.86 46.9903C111.86 46.7503 111.86 46.5002 111.86 46.2502C111.868 46.0027 111.909 45.7573 111.98 45.5202C112.046 45.2808 112.17 45.0612 112.34 44.8802C112.55 44.6621 112.811 44.5005 113.1 44.4102C113.443 44.2714 113.821 44.2434 114.18 44.3302C114.525 44.4152 114.838 44.5994 115.08 44.8602C115.349 45.1488 115.557 45.489 115.69 45.8602C115.845 46.2541 115.907 46.6786 115.87 47.1002C115.831 47.453 115.719 47.7936 115.54 48.1002L114.54 47.6502C114.669 47.4179 114.754 47.1636 114.79 46.9002C114.811 46.6451 114.774 46.3885 114.68 46.1502C114.593 45.8825 114.43 45.6461 114.21 45.4702C114.115 45.4073 114.007 45.3682 113.894 45.356C113.78 45.3438 113.666 45.359 113.56 45.4002C113.472 45.4281 113.39 45.4734 113.319 45.5335C113.249 45.5937 113.191 45.6673 113.15 45.7502C113.064 45.9211 113.016 46.1089 113.01 46.3003C113.01 46.5103 113.01 46.7403 113.01 46.9903C113.01 47.2403 113.01 47.4903 113.01 47.7403C113.003 47.9886 112.959 48.2346 112.88 48.4702C112.799 48.7129 112.666 48.9348 112.49 49.1202C112.263 49.3407 111.99 49.5081 111.69 49.6102C111.432 49.7192 111.153 49.7668 110.873 49.7495C110.594 49.7321 110.322 49.6502 110.08 49.5102C109.548 49.1869 109.145 48.6884 108.94 48.1002Z" fill="black"/>
<path d="M9.02002 67.7701L15.9 67.1602L16 68.2902L9.12 68.9001L9.02002 67.7701ZM9.08997 68.5502L10.09 68.4601L10.4301 72.3101L9.43005 72.4001L9.08997 68.5502ZM12.09 68.2802L13.09 68.1901L13.4 71.7101L12.4 71.8002L12.09 68.2802ZM14.92 68.0302L15.92 67.9401L16.25 71.7402L15.25 71.8301L14.92 68.0302Z" fill="black"/>
<path d="M10.3 77.3999C10.2003 76.9352 10.2003 76.4546 10.3 75.9899C10.3778 75.5461 10.5482 75.1235 10.8 74.7498C11.0466 74.3563 11.3696 74.0163 11.75 73.7498C12.1428 73.4825 12.5846 73.2956 13.05 73.1999C13.5158 73.1105 13.9942 73.1105 14.4599 73.1999C14.9072 73.2705 15.3357 73.4304 15.7199 73.6699C16.1113 73.9068 16.4513 74.2196 16.7199 74.5899C16.997 74.9759 17.1911 75.4151 17.29 75.8799C17.3937 76.3677 17.3937 76.872 17.29 77.3599C17.1994 77.7937 17.0299 78.2072 16.79 78.5799L15.88 77.9899C16.0561 77.7396 16.1724 77.4522 16.2199 77.1499C16.2849 76.8197 16.2849 76.48 16.2199 76.1499C16.1532 75.8341 16.024 75.5349 15.8399 75.2699C15.6692 75.0226 15.4477 74.8146 15.19 74.6599C14.9212 74.5067 14.626 74.405 14.3199 74.3599C13.9856 74.3219 13.6473 74.3422 13.3199 74.4199C12.9867 74.4852 12.6683 74.6106 12.38 74.7899C12.1203 74.9581 11.8961 75.1755 11.7199 75.4299C11.5518 75.6808 11.4362 75.9631 11.38 76.2599C11.3205 76.5737 11.3205 76.896 11.38 77.2099C11.4469 77.5694 11.5902 77.9104 11.8 78.2099C11.9783 78.464 12.2104 78.6757 12.4799 78.8299L11.89 79.7498C11.4983 79.5091 11.1584 79.193 10.89 78.8199C10.5978 78.3921 10.397 77.9087 10.3 77.3999V77.3999Z" fill="black"/>
<path d="M12.4899 84.6301C12.3222 84.1865 12.2441 83.7141 12.26 83.2401C12.2762 82.7809 12.3815 82.3292 12.5699 81.9101C12.7622 81.4944 13.0302 81.118 13.3599 80.8001C13.7058 80.4748 14.1141 80.223 14.56 80.0601C15.0012 79.8829 15.4748 79.8011 15.9499 79.8201C16.4045 79.8389 16.8519 79.9406 17.27 80.12C17.6876 80.3001 18.065 80.5619 18.3799 80.8901C18.7073 81.2305 18.9594 81.6359 19.1199 82.0801C19.2963 82.518 19.3781 82.9883 19.3599 83.4601C19.3426 83.9159 19.2374 84.3642 19.05 84.7801C18.854 85.1937 18.5865 85.5694 18.26 85.8901C17.9141 86.2154 17.5059 86.4671 17.06 86.6301C16.6185 86.8063 16.145 86.8881 15.67 86.87C15.2108 86.862 14.7581 86.7599 14.3399 86.5701C13.9267 86.3872 13.5531 86.1257 13.2399 85.8001C12.9123 85.4657 12.657 85.0674 12.4899 84.6301ZM13.4899 84.2201C13.6424 84.6111 13.894 84.9557 14.2199 85.2201C14.5424 85.4695 14.9256 85.6283 15.3299 85.6801C15.7748 85.7322 16.2256 85.6702 16.64 85.5001C16.958 85.3831 17.2526 85.2105 17.51 84.9901C17.7412 84.7829 17.9283 84.5312 18.06 84.2501C18.1905 83.9781 18.2621 83.6816 18.27 83.3801C18.2803 83.0387 18.2225 82.6988 18.0999 82.3801C17.9503 81.9875 17.6983 81.6421 17.3699 81.3801C17.0543 81.1239 16.6733 80.9611 16.27 80.9101C15.8283 80.8537 15.3796 80.9158 14.9699 81.0901C14.6482 81.2055 14.35 81.3783 14.0899 81.6001C13.8583 81.8054 13.6682 82.0532 13.53 82.3301C13.3995 82.6056 13.3279 82.9053 13.3199 83.2101C13.3088 83.5556 13.3702 83.8996 13.4999 84.2201H13.4899Z" fill="black"/>
<path d="M16.58 88.76L17.48 88.27L19.0699 91.21L18.17 91.7L16.58 88.76Z" fill="black"/>
<path d="M17.55 94.5499L23.24 90.6299L23.88 91.5599L18.2 95.4899L17.55 94.5499ZM20.4301 93.5499L21.28 92.9599L23.28 95.8499L22.4301 96.4399L20.4301 93.5499ZM22.83 91.8999L23.6801 91.3099L25.77 94.3099L24.92 94.8999L22.83 91.8999Z" fill="black"/>
<path d="M21.36 99.8302L26.52 95.2402L27.27 96.0902L22.12 100.68L21.36 99.8302ZM23.88 102.66L24.51 98.8602L25.51 99.3902L24.84 103.73L23.88 102.66ZM24.0699 98.4702L24.77 97.8402L25.9301 99.1502C26.0197 99.2654 26.1312 99.3618 26.2582 99.4339C26.3852 99.506 26.5251 99.5523 26.67 99.5702C26.8092 99.5791 26.9487 99.5588 27.0796 99.5106C27.2105 99.4624 27.3299 99.3873 27.4301 99.2902C27.5343 99.204 27.6199 99.0974 27.6818 98.9771C27.7436 98.8568 27.7805 98.7252 27.79 98.5902C27.7927 98.4423 27.7658 98.2953 27.7108 98.1579C27.6559 98.0205 27.5739 97.8955 27.47 97.7902L26.3 96.4802L27.04 95.8202L28.24 97.1702C28.507 97.4517 28.6996 97.7955 28.8 98.1702C28.8879 98.4978 28.8879 98.8427 28.8 99.1702C28.6916 99.5115 28.4908 99.816 28.22 100.05C27.9424 100.309 27.5944 100.479 27.22 100.54C26.883 100.602 26.5355 100.563 26.22 100.43C25.8549 100.281 25.5322 100.044 25.28 99.7402L24.0699 98.4702Z" fill="black"/>
<path d="M26.05 104.82L30.76 99.8198L31.59 100.59L26.88 105.6L26.05 104.82Z" fill="black"/>
<path d="M28.61 107.16L32.84 101.71L33.73 102.4L29.5 107.86L28.61 107.16ZM29.22 107.64L29.86 106.82L32.86 109.19L32.23 110.01L29.22 107.64ZM31.08 105.25L31.6901 104.46L34.48 106.63L33.87 107.41L31.08 105.25ZM32.8199 103L33.45 102.18L36.45 104.52L35.8199 105.34L32.8199 103Z" fill="black"/>
<path d="M34.03 111.21L37.49 105.21L38.17 105.61L37.8199 106.91L35.01 111.75L34.03 111.21ZM38.16 113.61L37.3 106.87L38.17 105.64L39.04 112.38L38.16 113.61ZM38.16 113.61L38.47 112.39L41.33 107.47L42.33 108.04L38.87 114.04L38.16 113.61Z" fill="black"/>
<path d="M41.13 115.12L43.66 108.7L44.72 109.12L42.1901 115.54L41.13 115.12ZM41.86 115.41L42.24 114.41L43.92 115.07C44.3239 115.24 44.7649 115.302 45.2 115.25C45.6021 115.193 45.98 115.023 46.29 114.76C46.6254 114.474 46.8804 114.105 47.03 113.69C47.2045 113.288 47.2666 112.845 47.21 112.41C47.1549 112.008 46.9926 111.628 46.74 111.31C46.4737 110.986 46.1297 110.735 45.74 110.58L44.05 109.91L44.4301 108.91L46.14 109.58C46.5857 109.753 46.9933 110.011 47.34 110.34C47.6683 110.649 47.9333 111.02 48.12 111.43C48.303 111.836 48.4017 112.275 48.41 112.72C48.4201 113.19 48.3315 113.657 48.15 114.09C47.9867 114.527 47.7348 114.925 47.41 115.26C47.0953 115.574 46.7258 115.828 46.3199 116.01C45.9039 116.181 45.4597 116.273 45.01 116.28C44.5367 116.283 44.0676 116.191 43.63 116.01L41.86 115.41Z" fill="black"/>
<path d="M48.88 117.94L50.54 111.23L51.64 111.51L49.99 118.21L48.88 117.94ZM49.64 118.13L49.89 117.13L53.4 117.99L53.15 118.99L49.64 118.13Z" fill="black"/>
<path d="M56.58 116.72L54.46 112.26L55.76 112.43L57.4 115.99L56.8 115.9L59.3199 112.9L60.6 113.07L57.36 116.82L56.58 116.72ZM56.05 119.44L56.52 116L57.64 116.15L57.1801 119.59L56.05 119.44Z" fill="black"/>
<path d="M63.16 120.09L65.71 113.09H66.5L69.61 119.87L68.39 119.92L65.9401 114.42H66.36L64.36 120.1L63.16 120.09ZM64.51 118.7L64.46 117.7L68.12 117.54V118.54L64.51 118.7Z" fill="black"/>
<path d="M72.53 119.4L68.96 113.07L70.05 112.85L72.76 117.73L72.47 117.79L73.0699 112.25L73.84 112.09L76.52 116.98L76.23 117.04L76.86 111.49L77.96 111.27L77.08 118.49L76.3101 118.64L73.62 113.77L73.91 113.71L73.3101 119.24L72.53 119.4Z" fill="black"/>
<path d="M79.96 117.75L80.24 110.29L80.99 110.02L85.99 115.52L84.84 115.95L80.84 111.46L81.23 111.32L81.0699 117.32L79.96 117.75ZM80.8199 116.02L80.48 115.09L83.91 113.83L84.25 114.75L80.8199 116.02Z" fill="black"/>
<path d="M87.71 114.7L84.47 108.6L85.47 108.07L88.71 114.17L87.71 114.7ZM87.02 111.75L86.58 110.92L88.12 110.1C88.2548 110.042 88.3764 109.956 88.4778 109.85C88.5791 109.743 88.658 109.618 88.71 109.48C88.7512 109.348 88.7645 109.208 88.749 109.071C88.7335 108.933 88.6896 108.8 88.62 108.68C88.5597 108.559 88.4754 108.451 88.3723 108.364C88.2692 108.276 88.1493 108.21 88.02 108.17C87.8783 108.126 87.7284 108.114 87.5814 108.134C87.4344 108.155 87.2939 108.208 87.17 108.29L85.62 109.11L85.15 108.24L86.75 107.39C87.0965 107.199 87.4845 107.096 87.88 107.09C88.2313 107.08 88.5783 107.17 88.88 107.35C89.1859 107.541 89.4346 107.81 89.6 108.13C89.772 108.435 89.8583 108.78 89.85 109.13C89.8316 109.49 89.7101 109.837 89.5 110.13C89.2663 110.45 88.9571 110.708 88.6 110.88L87.02 111.75ZM91.02 112.92L87.48 111.41L88.23 110.58L92.29 112.25L91.02 112.92Z" fill="black"/>
<path d="M93.88 111.29L89.88 105.7L90.8 105.03L94.85 110.63L93.88 111.29ZM94.51 110.83L93.91 109.99L95.38 108.93C95.7406 108.677 96.0271 108.331 96.21 107.93C96.3791 107.561 96.4415 107.153 96.39 106.75C96.3297 106.311 96.1576 105.894 95.89 105.54C95.6353 105.181 95.2904 104.894 94.89 104.71C94.5222 104.538 94.1133 104.472 93.71 104.52C93.2824 104.571 92.8757 104.733 92.53 104.99L91.0601 106.06L90.45 105.22L91.95 104.14C92.3307 103.852 92.7663 103.644 93.23 103.53C93.6648 103.421 94.1172 103.4 94.5601 103.47C95.0018 103.539 95.4262 103.691 95.8101 103.92C96.2098 104.18 96.5505 104.52 96.8101 104.92C97.0869 105.296 97.2842 105.725 97.39 106.18C97.4797 106.616 97.4797 107.065 97.39 107.5C97.3175 107.944 97.1578 108.369 96.92 108.75C96.6532 109.144 96.3138 109.483 95.92 109.75L94.51 110.83Z" fill="black"/>
<path d="M103.7 103.14L97.02 100.27L97.76 99.4302L102.88 101.67L102.68 101.89L99.8 97.1301L100.32 96.5302L105.41 98.8002L105.22 99.0302L102.36 94.2302L103.1 93.3901L106.77 99.6602L106.25 100.25L101.16 98.0001L101.36 97.7802L104.22 102.55L103.7 103.14Z" fill="black"/>
<path d="M109.27 96.2602L103.55 92.3902L104.18 91.4502L109.9 95.3202L109.27 96.2602Z" fill="black"/>
<path d="M111.21 93.4L105.12 90.14L105.49 89.45L106.8 89.7599L111.74 92.4L111.21 93.4ZM113.46 89.1899L106.76 90.28L105.49 89.45L112.2 88.35L113.46 89.1899ZM113.46 89.1899L112.23 88.92L107.23 86.23L107.77 85.23L113.86 88.49L113.46 89.1899Z" fill="black"/>
<path d="M114.88 86.1801L108.38 83.8501L108.65 83.1101L109.99 83.2201L115.27 85.1101L114.88 86.1801ZM116.5 81.6701L110.02 83.7501L108.65 83.1101L115.12 81.0401L116.5 81.6701ZM116.5 81.6701L115.24 81.5901L109.88 79.6701L110.26 78.6001L116.76 80.9301L116.5 81.6701Z" fill="black"/>
<path d="M117.37 78.5301L110.61 77.1001L110.85 75.9901L117.61 77.4201L117.37 78.5301ZM111.79 76.5301L110.79 76.3101L111.57 72.5801L112.57 72.7901L111.79 76.5301ZM114.57 77.1101L113.57 76.9101L114.3 73.4501L115.3 73.6601L114.57 77.1101ZM117.57 77.7401L116.57 77.5201L117.37 73.7401L118.37 73.9501L117.57 77.7401Z" fill="black"/>
<path d="M118.62 71.92L111.74 71.35L111.83 70.22L118.72 70.79L118.62 71.92ZM115.77 70.92L114.83 70.84L114.98 69.1C115.002 68.9546 114.994 68.8064 114.958 68.6639C114.922 68.5214 114.858 68.3875 114.77 68.27C114.684 68.1617 114.574 68.0741 114.45 68.0135C114.325 67.953 114.189 67.921 114.05 67.92C113.915 67.903 113.778 67.9138 113.647 67.9516C113.517 67.9894 113.395 68.0535 113.29 68.14C113.181 68.2395 113.093 68.3598 113.031 68.4937C112.97 68.6276 112.935 68.7726 112.93 68.92L112.79 70.67L111.79 70.59L111.93 68.79C111.96 68.3934 112.083 68.0095 112.29 67.67C112.48 67.3728 112.746 67.1313 113.06 66.97C113.37 66.8169 113.716 66.7512 114.06 66.78C114.419 66.8113 114.764 66.9354 115.06 67.14C115.344 67.3455 115.56 67.631 115.68 67.96C115.822 68.3291 115.877 68.7261 115.84 69.1199L115.77 70.92ZM118.93 68.16L115.75 70.3199L115.45 69.24L119.05 66.73L118.93 68.16Z" fill="black"/>
</svg>
